<?xml version="1.0" standalone="no"?>
<!DOCTYPE svg PUBLIC "-//W3C//DTD SVG 20010904//EN"
 "http://www.w3.org/TR/2001/REC-SVG-20010904/DTD/svg10.dtd">
<svg version="1.0" xmlns="http://www.w3.org/2000/svg"
 width="170.000000pt" height="45.000000pt" viewBox="0 0 170.000000 45.000000"
 preserveAspectRatio="xMidYMid meet">

<g transform="translate(0.000000,45.000000) scale(0.100000,-0.100000)"
fill="#000000" stroke="none">
<path d="M253 426 c-58 -19 -104 -49 -153 -102 -46 -50 -90 -135 -90 -175 0
-44 81 -99 148 -99 16 0 41 -9 55 -20 31 -24 74 -26 99 -4 19 18 103 24 403
27 143 1 152 0 173 -21 28 -28 82 -29 107 -2 17 19 31 20 235 20 204 0 218 -1
235 -20 23 -26 75 -26 108 0 16 13 40 20 66 20 49 0 56 11 46 75 -5 39 -11 48
-43 64 -20 10 -71 24 -112 31 -46 7 -110 28 -165 53 l-90 42 -135 0 c-127 0
-139 -2 -200 -29 -36 -16 -90 -32 -120 -35 l-55 -6 -10 -84 c-10 -86 -19 -100
-53 -86 -14 7 -13 9 8 15 23 7 23 8 3 9 -12 1 -25 -3 -28 -9 -3 -5 -13 -10
-21 -10 -10 0 -14 13 -14 49 0 40 -3 50 -20 54 -15 4 -20 14 -20 39 0 81 -78
182 -159 207 -50 14 -145 13 -198 -3z m223 -26 c87 -42 135 -152 114 -256 -6
-28 -17 -59 -24 -69 -26 -36 -36 -7 -36 110 0 106 -1 115 -22 129 -30 21 -54
20 -78 -4 -18 -18 -20 -33 -20 -135 l0 -115 -29 0 c-24 0 -33 7 -48 37 -33 68
-117 65 -138 -5 -9 -32 -11 -33 -45 -27 -19 4 -53 16 -75 28 -49 27 -56 63
-25 130 78 166 277 249 426 177z m25 -90 c17 -10 19 -22 19 -130 l0 -120 -50
0 -50 0 0 112 c0 90 3 115 17 130 18 20 36 23 64 8z m844 -47 c49 -25 108 -45
150 -52 39 -7 87 -17 108 -23 38 -11 50 -28 20 -28 -14 0 -14 -3 -5 -12 7 -7
20 -13 30 -13 9 0 18 -8 20 -17 2 -11 -3 -18 -12 -18 -9 0 -16 -4 -16 -10 0
-5 7 -7 15 -4 8 4 15 2 15 -4 0 -10 -23 -22 -44 -22 -7 0 -18 18 -25 41 -10
32 -20 44 -49 56 -34 14 -40 14 -72 -3 -24 -13 -39 -30 -46 -54 l-12 -35 -193
0 -193 0 -8 31 c-24 94 -140 90 -173 -5 -10 -28 -11 -28 -45 -17 -30 9 -35 16
-38 47 -3 30 1 37 23 47 30 14 33 32 5 32 -11 0 -20 6 -20 14 0 9 17 16 51 21
28 4 76 18 106 32 84 37 119 43 228 39 94 -3 106 -6 180 -43z m-360 -153 c15
-16 17 -26 9 -47 -18 -52 -96 -46 -102 8 -6 53 57 79 93 39z m566 10 c28 -16
25 -65 -5 -85 -19 -13 -28 -13 -50 -4 -33 16 -42 44 -22 74 17 27 45 32 77 15z
m-1247 -32 c15 -25 -3 -52 -37 -56 -34 -4 -58 38 -37 63 17 20 59 16 74 -7z"/>
<path d="M200 285 c0 -25 5 -45 10 -46 51 -3 120 0 129 5 6 4 11 25 11 47 l0
39 -75 0 -75 0 0 -45z"/>
<path d="M461 280 c-17 -10 -7 -40 14 -40 8 0 15 9 15 19 0 24 -12 32 -29 21z"/>
<path d="M1003 265 c-29 -15 -53 -31 -53 -36 0 -5 82 -9 189 -9 162 0 190 2
195 16 10 27 -58 47 -174 52 -98 3 -109 2 -157 -23z"/>
<path d="M1350 225 c0 -8 7 -15 15 -15 8 0 15 7 15 15 0 8 -7 15 -15 15 -8 0
-15 -7 -15 -15z"/>
<path d="M998 183 c6 -2 18 -2 25 0 6 3 1 5 -13 5 -14 0 -19 -2 -12 -5z"/>
<path d="M1208 183 c6 -2 18 -2 25 0 6 3 1 5 -13 5 -14 0 -19 -2 -12 -5z"/>
<path d="M1103 93 c15 -2 39 -2 55 0 15 2 2 4 -28 4 -30 0 -43 -2 -27 -4z"/>
<path d="M930 74 c0 -17 22 -14 28 4 2 7 -3 12 -12 12 -9 0 -16 -7 -16 -16z"/>
<path d="M1502 78 c6 -18 28 -21 28 -4 0 9 -7 16 -16 16 -9 0 -14 -5 -12 -12z"/>
<path d="M250 70 c0 -5 7 -10 15 -10 8 0 15 5 15 10 0 6 -7 10 -15 10 -8 0
-15 -4 -15 -10z"/>
</g>
</svg>
