<?xml version="1.0" standalone="no"?>
<!DOCTYPE svg PUBLIC "-//W3C//DTD SVG 20010904//EN"
 "http://www.w3.org/TR/2001/REC-SVG-20010904/DTD/svg10.dtd">
<svg version="1.0" xmlns="http://www.w3.org/2000/svg"
 width="155.000000pt" height="45.000000pt" viewBox="0 0 155.000000 45.000000"
 preserveAspectRatio="xMidYMid meet">

<g transform="translate(0.000000,45.000000) scale(0.100000,-0.100000)"
fill="#000000" stroke="none">
<path d="M890 435 c-11 -13 -72 -15 -440 -15 l-428 0 -6 -117 c-4 -65 -9 -143
-12 -174 -6 -55 -5 -56 23 -63 15 -4 88 -9 161 -13 108 -5 136 -9 153 -24 12
-10 30 -21 41 -25 24 -7 74 12 82 32 4 12 53 14 282 14 l276 0 30 -25 c37 -32
69 -32 106 0 29 24 34 25 181 25 150 0 151 0 151 23 0 12 -5 78 -10 146 -5 69
-8 127 -5 129 10 10 35 -22 35 -43 0 -34 10 -55 27 -55 12 0 14 8 8 37 -10 53
-21 71 -47 75 -17 2 -24 11 -26 31 -3 26 -5 27 -66 27 -35 0 -83 7 -106 15
-32 11 -88 15 -220 15 -146 0 -180 -3 -190 -15z m385 -5 c4 -7 -60 -10 -184
-10 -121 0 -191 4 -191 10 0 6 68 10 184 10 113 0 187 -4 191 -10z m178 -27
c-7 -2 -13 -11 -13 -19 0 -10 -14 -14 -55 -14 l-55 0 0 -150 0 -150 40 0 40 0
0 139 c0 108 3 140 14 144 10 4 15 -17 20 -95 4 -68 11 -104 21 -115 18 -18
19 -30 3 -36 -9 -4 -9 -8 -3 -14 6 -4 11 -14 12 -20 2 -10 -31 -13 -140 -13
l-144 0 -12 40 c-13 45 -34 60 -85 60 -40 0 -76 -36 -76 -77 l0 -23 -267 2
-267 3 -7 29 c-12 45 -38 66 -79 66 -42 0 -73 -28 -84 -74 l-7 -29 -122 6
c-152 8 -177 14 -177 38 0 11 6 19 14 19 12 0 13 25 8 145 l-5 145 719 -1
c395 0 713 -3 707 -6z m-1022 -309 c17 -21 0 -49 -31 -49 -31 0 -48 28 -31 49
8 9 21 16 31 16 10 0 23 -7 31 -16z m704 -19 c0 -26 -3 -30 -29 -30 -36 0 -56
26 -36 50 8 9 24 15 39 13 22 -2 26 -8 26 -33z"/>
<path d="M60 300 l0 -70 188 0 c163 0 194 -3 240 -20 29 -11 57 -20 62 -20 6
0 10 37 10 90 l0 90 -250 0 -250 0 0 -70z"/>
<path d="M590 220 l0 -150 40 0 40 0 0 150 0 150 -40 0 -40 0 0 -150z"/>
<path d="M690 220 l0 -150 40 0 40 0 0 150 0 150 -40 0 -40 0 0 -150z"/>
<path d="M800 280 l0 -90 200 0 200 0 0 90 0 90 -200 0 -200 0 0 -90z"/>
<path d="M1230 220 l0 -150 40 0 40 0 0 150 0 150 -40 0 -40 0 0 -150z"/>
<path d="M380 76 c0 -10 9 -16 21 -16 24 0 21 23 -4 28 -10 2 -17 -3 -17 -12z"/>
<path d="M1087 84 c-9 -10 2 -24 19 -24 8 0 14 7 14 15 0 15 -21 21 -33 9z"/>
</g>
</svg>
