<?xml version="1.0" standalone="no"?>
<!DOCTYPE svg PUBLIC "-//W3C//DTD SVG 20010904//EN"
 "http://www.w3.org/TR/2001/REC-SVG-20010904/DTD/svg10.dtd">
<svg version="1.0" xmlns="http://www.w3.org/2000/svg"
 width="112.000000pt" height="45.000000pt" viewBox="0 0 112.000000 45.000000"
 preserveAspectRatio="xMidYMid meet">
<metadata>
Created by potrace 1.16, written by Peter Selinger 2001-2019
</metadata>
<g transform="translate(0.000000,45.000000) scale(0.100000,-0.100000)"
fill="#000000" stroke="none">
<path d="M335 416 c-5 -2 -35 -12 -65 -21 -30 -9 -73 -25 -96 -36 -22 -10 -66
-21 -97 -23 -31 -3 -61 -7 -66 -10 -10 -7 -14 -163 -5 -212 5 -29 9 -31 47
-32 74 -1 92 -6 110 -29 30 -37 125 -28 150 13 6 11 57 14 257 13 235 -1 250
-3 270 -22 12 -11 41 -22 64 -24 33 -4 49 0 80 22 21 14 45 24 54 20 8 -3 30
-1 49 6 l33 11 0 67 c0 72 -7 84 -60 108 -31 14 -160 43 -193 43 -21 0 -65 19
-132 57 -72 41 -101 47 -245 50 -80 1 -149 1 -155 -1z m-78 -83 c-20 -14 -37
-29 -37 -33 0 -13 111 -18 291 -14 109 2 187 -1 208 -8 29 -9 36 -8 47 7 10
13 17 15 26 8 7 -6 31 -13 53 -16 85 -12 169 -28 178 -34 5 -3 4 -9 -3 -13
-17 -10 9 -50 32 -50 10 0 18 -4 18 -10 0 -5 -7 -10 -15 -10 -9 0 -15 -10 -16
-22 -1 -17 -4 -12 -13 15 -22 72 -73 95 -158 72 -30 -8 -68 -60 -68 -93 0 -20
-5 -20 -229 -19 -126 1 -227 5 -225 9 7 11 -21 71 -43 91 -13 11 -39 18 -69
20 -42 2 -54 -3 -81 -27 -18 -16 -33 -36 -33 -45 0 -35 -16 -45 -49 -31 -17 7
-31 18 -31 26 0 28 20 63 39 69 14 4 21 15 21 31 0 19 -5 24 -25 24 -50 0 -23
18 38 25 37 4 78 17 102 31 22 13 49 24 60 24 15 0 11 -6 -18 -27z"/>
</g>
</svg>
