<?xml version="1.0" standalone="no"?>
<!DOCTYPE svg PUBLIC "-//W3C//DTD SVG 20010904//EN"
 "http://www.w3.org/TR/2001/REC-SVG-20010904/DTD/svg10.dtd">
<svg version="1.0" xmlns="http://www.w3.org/2000/svg"
 width="112.000000pt" height="45.000000pt" viewBox="0 0 112.000000 45.000000"
 preserveAspectRatio="xMidYMid meet">

<g transform="translate(0.000000,45.000000) scale(0.100000,-0.100000)"
fill="#000000" stroke="none">
<path d="M837 388 c-4 -34 -9 -102 -13 -150 l-6 -88 -49 0 c-27 0 -49 5 -49
10 0 6 18 10 40 10 l40 0 0 55 0 55 -400 0 -400 0 0 -55 0 -55 80 0 c47 0 80
-4 80 -10 0 -5 -20 -10 -45 -10 -43 0 -45 -1 -45 -30 0 -20 -5 -30 -15 -30 -8
0 -15 -7 -15 -15 0 -19 14 -19 30 0 26 31 69 17 96 -30 30 -54 103 -57 132 -5
21 36 29 37 44 6 28 -63 111 -54 144 15 19 39 44 53 44 24 0 -12 14 -15 65
-15 39 0 65 4 65 11 0 6 5 7 13 2 19 -12 97 -12 97 1 0 8 3 8 8 0 4 -6 15 -13
25 -17 14 -5 17 0 17 29 0 47 15 73 53 89 19 9 25 14 15 15 -16 0 -18 12 -18
111 l0 112 86 -6 c81 -6 120 -19 109 -37 -8 -13 16 -114 30 -122 14 -9 10
-121 -5 -126 -6 -2 -10 -12 -10 -22 0 -13 -9 -20 -27 -23 -22 -3 -19 -5 12 -6
38 -3 38 -3 13 -11 -40 -12 -68 -2 -68 25 0 39 -31 66 -80 72 -57 6 -80 -11
-89 -63 -13 -70 46 -120 110 -94 16 7 31 20 34 29 3 12 17 16 52 16 80 0 82 2
82 103 0 83 -12 150 -41 224 -12 31 -18 34 -108 48 -36 6 -79 13 -96 16 l-31
6 -6 -64z m-49 -165 l3 -43 -390 0 -391 0 0 38 c0 21 3 42 7 45 4 4 178 6 387
5 l381 -3 3 -42z m-418 -63 c-20 -13 -73 -13 -65 0 3 6 23 10 43 10 28 0 33
-3 22 -10z m200 0 c0 -13 -100 -13 -120 0 -11 7 5 10 53 10 38 0 67 -4 67 -10z
m-305 -85 c0 -24 -5 -31 -24 -33 -32 -5 -54 23 -40 50 7 13 19 18 37 16 23 -2
27 -8 27 -33z m176 19 c17 -21 0 -49 -31 -49 -31 0 -48 28 -31 49 8 9 21 16
31 16 10 0 23 -7 31 -16z m512 -6 c8 -12 7 -21 -2 -32 -19 -23 -58 -20 -66 4
-14 43 44 67 68 28z"/>
<path d="M202 225 c0 -16 2 -22 5 -12 2 9 2 23 0 30 -3 6 -5 -1 -5 -18z"/>
<path d="M592 225 c0 -16 2 -22 5 -12 2 9 2 23 0 30 -3 6 -5 -1 -5 -18z"/>
<path d="M217 84 c-9 -10 2 -24 19 -24 8 0 14 7 14 15 0 15 -21 21 -33 9z"/>
<path d="M390 75 c0 -8 9 -15 20 -15 11 0 20 7 20 15 0 8 -9 15 -20 15 -11 0
-20 -7 -20 -15z"/>
<path d="M900 75 c0 -10 7 -15 18 -13 21 4 19 22 -2 26 -10 2 -16 -3 -16 -13z"/>
<path d="M940 326 c0 -37 3 -39 75 -50 31 -5 36 -4 23 4 -12 7 -18 23 -18 45
0 34 -1 35 -40 35 -39 0 -40 -1 -40 -34z"/>
<path d="M1043 325 c0 -22 2 -30 4 -17 2 12 2 30 0 40 -3 9 -5 -1 -4 -23z"/>
<path d="M948 223 c7 -3 16 -2 19 1 4 3 -2 6 -13 5 -11 0 -14 -3 -6 -6z"/>
<path d="M950 189 c14 -6 34 -18 45 -27 12 -9 8 -5 -7 11 -16 15 -36 27 -46
26 -12 0 -9 -3 8 -10z"/>
</g>
</svg>
