<?xml version="1.0" standalone="no"?>
<!DOCTYPE svg PUBLIC "-//W3C//DTD SVG 20010904//EN"
 "http://www.w3.org/TR/2001/REC-SVG-20010904/DTD/svg10.dtd">
<svg version="1.0" xmlns="http://www.w3.org/2000/svg"
 width="165.000000pt" height="45.000000pt" viewBox="0 0 165.000000 45.000000"
 preserveAspectRatio="xMidYMid meet">

<g transform="translate(0.000000,45.000000) scale(0.100000,-0.100000)"
fill="#000000" stroke="none">
<path d="M0 295 l0 -155 24 0 c18 0 25 -7 29 -26 3 -16 0 -28 -9 -31 -8 -3
-14 -12 -14 -20 0 -12 3 -12 22 1 33 23 52 20 71 -14 34 -57 96 -65 119 -15
11 25 28 34 28 15 0 -18 39 -50 61 -50 12 0 34 14 49 30 28 30 29 30 40 11 15
-28 47 -44 76 -37 29 8 58 59 51 92 -4 24 -3 24 77 24 57 0 76 -3 66 -10 -13
-9 -13 -11 0 -21 11 -8 12 -12 3 -16 -40 -16 3 -23 137 -23 134 0 177 7 138
23 -10 4 -9 8 2 16 13 10 13 12 0 21 -11 7 -7 10 17 10 24 0 31 -4 27 -15 -7
-18 31 -82 58 -96 26 -14 65 -4 78 21 10 18 21 20 136 20 120 0 128 -1 156
-25 37 -31 49 -31 85 -1 19 16 45 26 74 28 42 3 44 5 47 35 3 27 0 32 -13 27
-12 -5 -15 -14 -11 -30 6 -22 3 -24 -29 -24 -27 0 -35 4 -35 18 0 38 -29 62
-75 62 -47 0 -65 -17 -65 -59 0 -20 -5 -21 -125 -21 -101 0 -125 3 -125 14 0
8 -3 21 -6 30 -5 14 9 16 119 16 102 0 126 3 131 15 3 9 0 15 -9 15 -12 0 -15
17 -15 88 0 48 3 104 6 125 l7 38 76 -7 c101 -8 117 -20 126 -86 4 -29 12 -62
19 -73 7 -11 11 -39 11 -63 -1 -23 3 -42 8 -42 16 0 1 108 -24 185 -27 79 -26
78 -148 92 -62 8 -74 7 -80 -7 -3 -8 -6 -72 -6 -142 l0 -128 -70 2 c-70 1 -70
1 -20 8 28 4 -250 8 -617 8 l-668 2 0 145 0 145 665 -2 c366 -2 665 0 665 5 0
4 -301 7 -670 7 l-670 0 0 -155z m888 -182 c-32 -2 -84 -2 -115 0 -32 2 -6 3
57 3 63 0 89 -1 58 -3z m232 -28 c15 -18 7 -43 -16 -52 -24 -9 -46 24 -33 48
12 23 32 24 49 4z m394 -7 c8 -14 7 -21 -6 -34 -30 -30 -75 9 -48 42 16 18 39
15 54 -8z m-1299 -12 c0 -29 -31 -44 -50 -25 -23 23 -9 51 24 47 18 -2 26 -9
26 -22z m149 8 c7 -19 -10 -44 -29 -44 -19 0 -38 28 -31 45 7 20 52 19 60 -1z
m141 -8 c0 -10 -8 -24 -18 -30 -14 -9 -21 -7 -32 7 -19 27 -8 49 24 45 18 -2
26 -9 26 -22z m435 14 c0 -6 -45 -10 -115 -10 -70 0 -115 4 -115 10 0 6 45 10
115 10 70 0 115 -4 115 -10z"/>
<path d="M1087 74 c-8 -8 1 -24 14 -24 5 0 9 7 9 15 0 15 -12 20 -23 9z"/>
<path d="M1476 73 c-11 -11 -6 -23 9 -23 8 0 15 4 15 9 0 13 -16 22 -24 14z"/>
<path d="M176 72 c-3 -6 -1 -14 5 -17 15 -10 25 3 12 16 -7 7 -13 7 -17 1z"/>
<path d="M325 69 c-10 -15 3 -25 16 -12 7 7 7 13 1 17 -6 3 -14 1 -17 -5z"/>
<path d="M466 72 c-3 -6 -1 -14 5 -17 15 -10 25 3 12 16 -7 7 -13 7 -17 1z"/>
<path d="M1500 280 c0 -23 5 -31 24 -36 45 -11 61 -2 63 36 l1 35 -8 -35 -7
-35 -2 33 c-1 30 -3 32 -36 32 -32 0 -35 -2 -35 -30z"/>
<path d="M1545 140 c10 -11 20 -20 23 -20 3 0 -3 9 -13 20 -10 11 -20 20 -23
20 -3 0 3 -9 13 -20z"/>
<path d="M1330 100 c0 -5 9 -10 20 -10 11 0 20 5 20 10 0 6 -9 10 -20 10 -11
0 -20 -4 -20 -10z"/>
<path d="M1328 73 c6 -2 18 -2 25 0 6 3 1 5 -13 5 -14 0 -19 -2 -12 -5z"/>
</g>
</svg>
