<?xml version="1.0" standalone="no"?>
<!DOCTYPE svg PUBLIC "-//W3C//DTD SVG 20010904//EN"
 "http://www.w3.org/TR/2001/REC-SVG-20010904/DTD/svg10.dtd">
<svg version="1.0" xmlns="http://www.w3.org/2000/svg"
 width="112.000000pt" height="45.000000pt" viewBox="0 0 112.000000 45.000000"
 preserveAspectRatio="xMidYMid meet">

<g transform="translate(0.000000,45.000000) scale(0.100000,-0.100000)"
fill="#000000" stroke="none">
<path d="M633 440 c-32 -13 -28 -22 8 -18 31 3 33 0 116 -147 94 -166 91 -160
98 -153 3 3 -7 26 -21 53 -22 39 -24 49 -13 56 51 32 139 -32 139 -101 0 -53
-57 -110 -110 -110 -29 0 -76 26 -94 52 -20 28 -20 75 -1 108 17 29 18 40 6
40 -5 0 -16 -16 -26 -36 -33 -69 5 -155 76 -174 56 -15 93 -5 128 35 50 58 50
111 -2 176 -16 21 -81 40 -116 33 -24 -5 -30 2 -82 93 -31 54 -63 99 -70 100
-8 1 -24 -2 -36 -7z"/>
<path d="M793 402 c-47 -7 -54 -60 -12 -83 33 -17 49 -4 49 40 0 44 -4 49 -37
43z m17 -47 c0 -28 -12 -32 -30 -10 -14 16 -6 35 16 35 8 0 14 -10 14 -25z"/>
<path d="M520 364 c-61 -23 -74 -24 -192 -18 -124 6 -126 6 -138 -17 -26 -48
22 -57 316 -57 184 -1 192 0 197 19 8 31 -11 75 -39 88 -36 16 -71 13 -144
-15z m143 -6 c9 -7 18 -24 19 -38 l3 -25 -225 0 c-225 0 -274 5 -252 27 6 6
41 9 89 7 131 -5 176 -2 228 19 58 23 114 27 138 10z"/>
<path d="M203 241 c-62 -39 -86 -106 -58 -162 37 -70 107 -95 173 -61 39 20
72 65 58 79 -5 4 -11 3 -13 -4 -32 -91 -163 -94 -200 -6 -29 71 23 153 97 153
47 0 110 -55 110 -96 0 -2 -27 -4 -60 -4 -33 0 -60 -4 -60 -10 0 -6 35 -10 85
-10 l85 0 17 -35 17 -35 97 0 98 0 19 63 c11 34 23 77 27 95 l7 32 -146 0
c-133 0 -146 -2 -156 -19 -7 -13 -7 -28 0 -45 14 -37 23 -32 16 9 l-7 35 137
0 c108 0 135 -3 131 -13 -3 -7 -13 -41 -22 -75 l-18 -62 -87 0 c-83 0 -87 1
-98 25 l-12 25 90 0 c49 0 91 3 93 8 11 19 16 62 8 62 -5 0 -12 -11 -15 -25
-6 -25 -7 -25 -117 -25 -96 0 -110 2 -115 18 -26 84 -114 125 -181 83z"/>
</g>
</svg>
